<svg width="100%" viewBox="0 0 680 380" role="img" xmlns="http://www.w3.org/2000/svg">
<title>阿蘇五岳と赤牛のイラスト</title>
<desc>阿蘇五岳と広大な草原、赤牛が草を食む温かみのある風景イラスト</desc>

<!-- 空 -->
<rect x="0" y="0" width="680" height="230" fill="#c8e8f8"/>

<!-- 太陽 -->
<circle cx="580" cy="65" r="35" fill="#fae898" opacity="0.9"/>
<circle cx="580" cy="65" r="27" fill="#fdf0b0"/>

<!-- 雲 -->
<ellipse cx="110" cy="75" rx="52" ry="20" fill="#fff" opacity="0.9"/>
<ellipse cx="148" cy="67" rx="38" ry="17" fill="#fff" opacity="0.9"/>
<ellipse cx="78" cy="72" rx="30" ry="15" fill="#fff" opacity="0.85"/>
<ellipse cx="390" cy="58" rx="44" ry="17" fill="#fff" opacity="0.8"/>
<ellipse cx="425" cy="51" rx="30" ry="14" fill="#fff" opacity="0.8"/>
<ellipse cx="362" cy="55" rx="27" ry="12" fill="#fff" opacity="0.75"/>

<!-- 外輪山（遠景） -->
<path d="M0 185 Q60 150 130 162 Q200 140 270 158 Q340 142 410 155 Q480 138 550 152 Q615 140 680 148 L680 220 L0 220 Z" fill="#8aaa78" opacity="0.5"/>

<!-- 阿蘇五岳 -->
<!-- 根子岳（左・ギザギザ） -->
<path d="M50 222 Q75 168 88 158 Q94 162 100 155 Q106 162 112 158 Q120 165 128 172 Q140 185 155 222 Z" fill="#7a8a70"/>
<path d="M80 222 Q95 175 100 162 Q106 170 115 178 Q130 192 145 222 Z" fill="#8a9a80"/>
<path d="M88 158 L94 150 L100 155 L106 148 L112 158" fill="none" stroke="#6a7a60" stroke-width="2" stroke-linejoin="round"/>

<!-- 高岳（最高峰） -->
<path d="M160 222 Q195 148 222 132 Q250 148 285 222 Z" fill="#6a8060"/>
<path d="M185 222 Q210 160 222 138 Q234 160 260 222 Z" fill="#7a9070"/>
<ellipse cx="222" cy="136" rx="10" ry="5" fill="#fff" opacity="0.6"/>

<!-- 中岳（噴煙あり） -->
<path d="M272 222 Q300 155 318 140 Q336 155 365 222 Z" fill="#7a8870"/>
<path d="M292 222 Q312 165 318 145 Q325 165 345 222 Z" fill="#8a9880"/>
<ellipse cx="318" cy="140" rx="12" ry="9" fill="#e8e8e0" opacity="0.75"/>
<ellipse cx="314" cy="129" rx="9" ry="8" fill="#e0e0d8" opacity="0.65"/>
<ellipse cx="320" cy="119" rx="8" ry="7" fill="#d8d8d0" opacity="0.5"/>
<ellipse cx="315" cy="110" rx="6" ry="6" fill="#d0d0c8" opacity="0.4"/>

<!-- 烏帽子岳 -->
<path d="M358 222 Q385 162 405 148 Q425 162 450 222 Z" fill="#728a68"/>
<path d="M375 222 Q395 170 405 152 Q416 170 435 222 Z" fill="#829a78"/>
<ellipse cx="405" cy="151" rx="8" ry="4" fill="#fff" opacity="0.5"/>

<!-- 杵島岳 -->
<path d="M448 222 Q475 170 500 158 Q525 170 555 222 Z" fill="#6a8060"/>
<path d="M465 222 Q488 175 500 162 Q512 175 535 222 Z" fill="#7a9070"/>

<!-- 中景の草原 -->
<path d="M0 222 Q170 205 340 212 Q510 205 680 218 L680 290 L0 290 Z" fill="#7ab868"/>
<path d="M0 258 Q170 245 340 250 Q510 245 680 250 L680 290 L0 290 Z" fill="#6aaa58"/>

<!-- 手前の草原 -->
<rect x="0" y="288" width="680" height="92" fill="#5a9a48"/>
<path d="M0 288 Q34 281 68 288 Q102 281 136 288 Q170 281 204 288 Q238 281 272 288 Q306 281 340 288 Q374 281 408 288 Q442 281 476 288 Q510 281 544 288 Q578 281 612 288 Q646 281 680 288" fill="none" stroke="#4a8a38" stroke-width="2" opacity="0.4"/>

<!-- 木々（左） -->
<rect x="52" y="258" width="7" height="34" rx="2" fill="#5a4030"/>
<ellipse cx="56" cy="250" rx="17" ry="20" fill="#4a8040"/>
<ellipse cx="49" cy="257" rx="12" ry="15" fill="#3a7030"/>
<ellipse cx="63" cy="255" rx="12" ry="14" fill="#3a7030"/>

<!-- 木々（右） -->
<rect x="618" y="255" width="7" height="36" rx="2" fill="#5a4030"/>
<ellipse cx="622" cy="247" rx="17" ry="20" fill="#4a8040"/>
<ellipse cx="615" cy="254" rx="12" ry="15" fill="#3a7030"/>
<ellipse cx="629" cy="252" rx="12" ry="14" fill="#3a7030"/>

<!-- 道 -->
<path d="M310 380 Q322 345 328 310 Q333 285 338 265" fill="none" stroke="#c8b890" stroke-width="14" opacity="0.5"/>
<path d="M310 380 Q322 345 328 310 Q333 285 338 265" fill="none" stroke="#d8c8a0" stroke-width="8" opacity="0.4"/>

<!-- 赤牛①（左・横向き） -->
<g transform="translate(85,290)">
  <ellipse cx="0" cy="18" rx="36" ry="20" fill="#a04830"/>
  <path d="M20 6 Q32 0 40 8 Q44 15 38 22 Q30 18 20 18 Z" fill="#983f28"/>
  <ellipse cx="46" cy="10" rx="18" ry="14" fill="#903820"/>
  <ellipse cx="60" cy="14" rx="10" ry="8" fill="#7a3018"/>
  <circle cx="58" cy="16" r="2.5" fill="#5a2010"/>
  <circle cx="64" cy="16" r="2.5" fill="#5a2010"/>
  <circle cx="48" cy="7" r="3.5" fill="#2a1808"/>
  <circle cx="49" cy="6" r="1" fill="#fff" opacity="0.6"/>
  <ellipse cx="35" cy="2" rx="7" ry="4" fill="#883020" transform="rotate(-20,35,2)"/>
  <path d="M37 0 Q33 -7 29 -9" fill="none" stroke="#c8a870" stroke-width="3" stroke-linecap="round"/>
  <path d="M42 -2 Q41 -9 39 -12" fill="none" stroke="#c8a870" stroke-width="3" stroke-linecap="round"/>
  <ellipse cx="-5" cy="5" rx="22" ry="8" fill="#c06040" opacity="0.4"/>
  <rect x="-28" y="34" width="10" height="22" rx="4" fill="#883020"/>
  <rect x="-12" y="36" width="10" height="20" rx="4" fill="#883020"/>
  <rect x="8" y="36" width="10" height="20" rx="4" fill="#883020"/>
  <rect x="22" y="34" width="10" height="22" rx="4" fill="#883020"/>
  <ellipse cx="-23" cy="57" rx="6" ry="3" fill="#3a2010"/>
  <ellipse cx="-7" cy="57" rx="6" ry="3" fill="#3a2010"/>
  <ellipse cx="13" cy="57" rx="6" ry="3" fill="#3a2010"/>
  <ellipse cx="27" cy="57" rx="6" ry="3" fill="#3a2010"/>
  <path d="M-36 15 Q-48 22 -44 36 L-42 40" fill="none" stroke="#883020" stroke-width="3.5" stroke-linecap="round"/>
  <ellipse cx="-42" cy="41" rx="5" ry="7" fill="#5a2010" transform="rotate(10,-42,41)"/>
</g>

<!-- 赤牛②（右・草を食べている） -->
<g transform="translate(490,295) scale(-1,1)">
  <ellipse cx="0" cy="16" rx="30" ry="17" fill="#983828"/>
  <path d="M18 5 Q28 0 35 7 Q38 13 33 18 Q26 15 18 16 Z" fill="#883020"/>
  <ellipse cx="40" cy="18" rx="15" ry="12" fill="#803018"/>
  <ellipse cx="52" cy="24" rx="9" ry="7" fill="#6a2810"/>
  <circle cx="50" cy="27" r="2" fill="#4a1808"/>
  <circle cx="55" cy="27" r="2" fill="#4a1808"/>
  <circle cx="40" cy="13" r="3" fill="#2a1808"/>
  <circle cx="41" cy="12" r="1" fill="#fff" opacity="0.6"/>
  <ellipse cx="28" cy="3" rx="6" ry="3.5" fill="#783018" transform="rotate(-15,28,3)"/>
  <path d="M30 1 Q27 -7 23 -9" fill="none" stroke="#c8a870" stroke-width="2.5" stroke-linecap="round"/>
  <ellipse cx="0" cy="5" rx="18" ry="7" fill="#b85838" opacity="0.35"/>
  <rect x="-22" y="30" width="8" height="18" rx="3" fill="#783018"/>
  <rect x="-8" y="31" width="8" height="17" rx="3" fill="#783018"/>
  <rect x="6" y="31" width="8" height="17" rx="3" fill="#783018"/>
  <rect x="18" y="30" width="8" height="18" rx="3" fill="#783018"/>
  <ellipse cx="-18" cy="49" rx="5" ry="3" fill="#3a2010"/>
  <ellipse cx="-4" cy="49" rx="5" ry="3" fill="#3a2010"/>
  <ellipse cx="10" cy="49" rx="5" ry="3" fill="#3a2010"/>
  <ellipse cx="22" cy="49" rx="5" ry="3" fill="#3a2010"/>
  <path d="M-30 12 Q-40 18 -37 30 L-35 34" fill="none" stroke="#783018" stroke-width="3" stroke-linecap="round"/>
  <ellipse cx="-35" cy="35" rx="4" ry="6" fill="#5a2010" transform="rotate(10,-35,35)"/>
  <path d="M52 30 Q55 38 52 42" fill="none" stroke="#5a9a48" stroke-width="3" stroke-linecap="round"/>
  <ellipse cx="52" cy="43" rx="6" ry="4" fill="#5a9a48"/>
</g>

<!-- タイトルテキスト -->
<rect x="28" y="18" width="210" height="52" rx="8" fill="#fff" opacity="0.78"/>
<text x="133" y="40" font-family="'Shippori Mincho', serif" font-size="13" fill="#4a7c59" text-anchor="middle" font-weight="600">阿蘇の大自然のなかで</text>
<text x="133" y="58" font-family="'Shippori Mincho', serif" font-size="12" fill="#6a9a72" text-anchor="middle">あなたの暮らしに寄り添います</text>

<!-- 五岳ラベル -->
<text x="100" y="240" font-family="sans-serif" font-size="9" fill="#5a6a50" text-anchor="middle" opacity="0.8">根子岳</text>
<text x="222" y="237" font-family="sans-serif" font-size="9" fill="#5a6a50" text-anchor="middle" opacity="0.8">高岳</text>
<text x="318" y="237" font-family="sans-serif" font-size="9" fill="#5a6a50" text-anchor="middle" opacity="0.8">中岳</text>
<text x="405" y="237" font-family="sans-serif" font-size="9" fill="#5a6a50" text-anchor="middle" opacity="0.8">烏帽子岳</text>
<text x="500" y="237" font-family="sans-serif" font-size="9" fill="#5a6a50" text-anchor="middle" opacity="0.8">杵島岳</text>

<!-- 装飾ライン -->
<line x1="40" y1="372" x2="640" y2="372" stroke="#4a7c59" stroke-width="1" opacity="0.25"/>
<text x="340" y="378" font-family="sans-serif" font-size="10" fill="#4a7c59" opacity="0.6" text-anchor="middle">ケアステーション ゆう　Care Station Yu — 内牧, 阿蘇</text>

</svg>
