<svg width="680" height="420" viewBox="0 0 680 420" xmlns="http://www.w3.org/2000/svg" role="img">
<title>ケアプランの書類とお茶が置かれた、落ち着いた雰囲気の机の上を俯瞰したイラスト</title>
<desc>木目の机の上に、線が引かれたケアプランの書類とペン、湯気の立つお茶、小さな観葉植物が配置された、あたたかみのあるフラットレイイラスト</desc>

<rect x="0" y="0" width="680" height="420" fill="#e9dcc6"/>

<g opacity="0.25">
<line x1="0" y1="60" x2="680" y2="55" stroke="#c9b691" stroke-width="2"/>
<line x1="0" y1="180" x2="680" y2="185" stroke="#c9b691" stroke-width="2"/>
<line x1="0" y1="300" x2="680" y2="295" stroke="#c9b691" stroke-width="2"/>
</g>

<g>
<rect x="150" y="70" width="300" height="220" rx="6" fill="#fbf7ee" stroke="#d8cdb6" stroke-width="1.5"/>
<rect x="175" y="100" width="180" height="10" rx="3" fill="#7c9260"/>
<rect x="175" y="130" width="250" height="6" rx="2" fill="#cfc7b0"/>
<rect x="175" y="150" width="250" height="6" rx="2" fill="#cfc7b0"/>
<rect x="175" y="170" width="200" height="6" rx="2" fill="#cfc7b0"/>
<rect x="175" y="200" width="140" height="8" rx="3" fill="#c98a5e"/>
<rect x="175" y="222" width="250" height="6" rx="2" fill="#cfc7b0"/>
<rect x="175" y="242" width="250" height="6" rx="2" fill="#cfc7b0"/>
<rect x="175" y="262" width="180" height="6" rx="2" fill="#cfc7b0"/>
</g>

<g transform="translate(370,235) rotate(18)">
<rect x="0" y="0" width="10" height="90" rx="3" fill="#3d322b"/>
<polygon points="0,-2 10,-2 5,-20" fill="#c98a5e"/>
</g>

<g transform="translate(500,150)">
<ellipse cx="0" cy="70" rx="55" ry="14" fill="#c9b691" opacity="0.35"/>
<path d="M-45 20 Q-45 70 0 70 Q45 70 45 20 Z" fill="#f3ede0" stroke="#d8cdb6" stroke-width="1.5"/>
<ellipse cx="0" cy="20" rx="45" ry="12" fill="#8a6a4a"/>
<ellipse cx="0" cy="20" rx="45" ry="12" fill="none" stroke="#6f4f34" stroke-width="1.5"/>
<path d="M45 30 Q65 30 65 45 Q65 60 45 55" fill="none" stroke="#d8cdb6" stroke-width="4"/>
</g>

<g opacity="0.7">
<path d="M480 100 Q485 80 478 65" fill="none" stroke="#b4a892" stroke-width="2.5" stroke-linecap="round"/>
<path d="M500 105 Q505 82 498 62" fill="none" stroke="#b4a892" stroke-width="2.5" stroke-linecap="round"/>
<path d="M520 100 Q525 80 518 65" fill="none" stroke="#b4a892" stroke-width="2.5" stroke-linecap="round"/>
</g>

<g transform="translate(95,190)">
<path d="M-30 60 Q-30 20 0 20 Q30 20 30 60 Z" fill="#c98a5e"/>
<path d="M-30 60 Q-30 20 0 20 Q30 20 30 60 Z" fill="none" stroke="#a86c45" stroke-width="1.5"/>
<path d="M0 20 Q-10 -10 -25 -20" fill="none" stroke="#6f8654" stroke-width="6" stroke-linecap="round"/>
<ellipse cx="-25" cy="-22" rx="16" ry="22" fill="#7c9260"/>
<path d="M0 20 Q8 -8 22 -22" fill="none" stroke="#6f8654" stroke-width="6" stroke-linecap="round"/>
<ellipse cx="24" cy="-24" rx="14" ry="20" fill="#8a9e6f"/>
<path d="M0 20 Q0 -14 0 -30" fill="none" stroke="#6f8654" stroke-width="6" stroke-linecap="round"/>
<ellipse cx="0" cy="-32" rx="13" ry="20" fill="#7c9260"/>
</g>

<g transform="translate(560,300)">
<ellipse cx="0" cy="35" rx="45" ry="10" fill="#c9b691" opacity="0.3"/>
<circle cx="0" cy="0" r="34" fill="#fbf7ee" stroke="#d8cdb6" stroke-width="1.5"/>
<path d="M-14 0 L-4 12 L16 -10" fill="none" stroke="#7c9260" stroke-width="4" stroke-linecap="round" stroke-linejoin="round"/>
</g>

</svg>
